<?xml version="1.0" encoding="utf-8"?>
<!-- Generator: Adobe Illustrator 28.0.0, SVG Export Plug-In . SVG Version: 6.00 Build 0)  -->
<svg version="1.1" id="bl-icon_xA0_Image_00000067200851455682115450000003136945635366887555_"
	 xmlns="http://www.w3.org/2000/svg" xmlns:xlink="http://www.w3.org/1999/xlink" x="0px" y="0px" width="155px" height="30px"
	 viewBox="0 0 155 30" style="enable-background:new 0 0 155 30;" xml:space="preserve">
<style type="text/css">
	<!-- .st0{fill:#00404C;} -->
  .st0 {fill: rgb(255 255 255 / 50%);}
</style>
<path class="st0" d="M12.9,11.33c-0.37-0.11-0.51-0.31-0.57-0.66c-0.2-1.34-0.41-2.69-0.62-4.03c-0.05-0.33,0-0.4,0.33-0.48
	c0.68-0.16,1.05-0.7,0.96-1.39c-0.05-0.32-0.12-0.65-0.15-0.97c-0.07-0.84-0.74-1.37-1.59-1.18c-0.49,0.11-1,0.16-1.51,0.24
	C9.73,2.5,9.71,2.18,9.69,1.85c-1.31,0.2-2.59,0.4-3.89,0.6c0.08,0.33,0.16,0.63,0.24,0.95C5.99,3.43,5.98,3.44,5.96,3.45
	C5.44,3.53,4.92,3.61,4.39,3.7C3.65,3.81,3.24,4.37,3.35,5.12c0.05,0.32,0.1,0.65,0.15,0.97C3.63,6.96,4.05,7.3,4.93,7.27
	c0.2-0.01,0.34,0.06,0.37,0.27c0.22,1.42,0.44,2.84,0.65,4.26c0.03,0.23-0.02,0.43-0.25,0.59c-3.29,2.18-4.66,6.21-3.39,9.95
	c1.48,4.37,6.34,6.82,10.72,5.41c3.88-1.25,6.34-5,5.95-9.06C18.64,15.22,16.26,12.32,12.9,11.33z M18.12,19.39
	c0.12,3.23-2.02,6.32-5.15,7.42c-4.09,1.44-8.61-0.86-9.89-5.03c-1.02-3.3,0.33-6.91,3.27-8.73c0.43-0.27,0.46-0.68,0.51-1.09
	c0.02-0.17,0-0.35-0.03-0.52c-0.2-1.3-0.4-2.61-0.6-3.91C6.1,6.69,5.64,6.32,4.8,6.38c-0.22,0.01-0.35-0.07-0.38-0.3
	C4.37,5.71,4.31,5.34,4.25,4.97C4.21,4.74,4.32,4.62,4.54,4.59c0.26-0.04,0.51-0.08,0.77-0.12c0,0,0,0,0,0
	C5.55,4.43,5.8,4.4,6.05,4.35c0.18-0.04,0.26,0.02,0.3,0.2c0.23,0.89,0.47,1.77,0.7,2.65C7.09,7.37,7.15,7.42,7.32,7.4
	c0.8-0.13,1.6-0.25,2.4-0.37C9.89,7,9.94,6.93,9.93,6.76C9.88,5.85,9.84,4.93,9.79,4.02c-0.01-0.18,0.04-0.26,0.22-0.29
	c0.49-0.07,0.97-0.15,1.46-0.22c0.31-0.05,0.4,0.02,0.45,0.32c0.06,0.34,0.1,0.69,0.16,1.03c0.04,0.25-0.04,0.38-0.29,0.43
	c-0.74,0.16-1.11,0.69-0.99,1.44c0.2,1.36,0.41,2.72,0.64,4.08c0.04,0.23,0.13,0.46,0.23,0.68c0.16,0.34,0.41,0.55,0.81,0.66
	C15.78,13.06,17.99,15.91,18.12,19.39z M14.95,15.6c0.5,0.14,0.92,0.26,1.34,0.39c0.06,0.02,0.09,0.12,0.13,0.18
	c2.15,3.68,0.27,8.59-3.8,9.91c-3.72,1.2-7.57-0.76-8.76-4.48c-0.36-1.11-0.4-2.25-0.17-3.39c0.03-0.15,0.12-0.28,0.16-0.38
	c0.74,0.02,1.48,0.08,2.22,0.06c1.42-0.04,2.74-0.46,4.02-1.05c0.85-0.39,1.75-0.69,2.62-1.04c0.18-0.07,0.31-0.01,0.44,0.1
	c1.09,0.92,1.64,2.09,1.63,3.52c0,0.41,0.18,0.7,0.53,0.79c0.29,0.07,0.64-0.1,0.75-0.48c0.1-0.35,0.14-0.74,0.12-1.1
	c-0.06-1.01-0.45-1.9-1.02-2.72C15.11,15.82,15.06,15.75,14.95,15.6z M31.8,16.28c0.45,0.57,0.67,1.22,0.67,1.95
	c0,0.66-0.16,1.24-0.49,1.74c-0.32,0.5-0.79,0.89-1.41,1.18c-0.61,0.28-1.34,0.42-2.18,0.42h-5.33V9.22h5.1
	c0.84,0,1.56,0.14,2.17,0.41c0.61,0.27,1.07,0.65,1.38,1.13c0.31,0.48,0.47,1.03,0.47,1.65c0,0.72-0.19,1.32-0.58,1.81
	c-0.38,0.48-0.89,0.83-1.53,1.03C30.78,15.36,31.36,15.71,31.8,16.28z M25.56,14.31h2.27c0.59,0,1.04-0.13,1.36-0.4
	c0.32-0.27,0.48-0.65,0.48-1.14c0-0.5-0.16-0.88-0.48-1.15c-0.32-0.27-0.77-0.41-1.36-0.41h-2.27V14.31z M29.46,19.13
	c0.34-0.28,0.5-0.68,0.5-1.2c0-0.53-0.18-0.95-0.53-1.25c-0.35-0.3-0.83-0.45-1.43-0.45h-2.44v3.33h2.5
	C28.65,19.55,29.12,19.41,29.46,19.13z M36.27,21.1c-0.76-0.42-1.35-1.01-1.78-1.78c-0.43-0.77-0.65-1.65-0.65-2.66
	c0-1,0.22-1.89,0.66-2.66c0.44-0.77,1.05-1.36,1.81-1.78c0.77-0.42,1.62-0.63,2.57-0.63c0.94,0,1.8,0.21,2.57,0.63
	c0.77,0.42,1.37,1.01,1.81,1.78c0.44,0.77,0.66,1.65,0.66,2.66c0,1-0.23,1.89-0.68,2.66c-0.45,0.77-1.07,1.36-1.84,1.78
	c-0.77,0.42-1.64,0.63-2.59,0.63C37.87,21.73,37.02,21.52,36.27,21.1z M40.08,19.24c0.4-0.22,0.71-0.55,0.95-0.98
	c0.24-0.44,0.35-0.97,0.35-1.59c0-0.93-0.24-1.65-0.73-2.15c-0.49-0.5-1.09-0.75-1.8-0.75c-0.71,0-1.3,0.25-1.78,0.75
	c-0.48,0.5-0.72,1.22-0.72,2.15c0,0.93,0.23,1.65,0.7,2.15c0.47,0.5,1.05,0.75,1.76,0.75C39.26,19.57,39.68,19.46,40.08,19.24z
	 M55.01,11.76v9.81h-2.5v-1.24c-0.32,0.42-0.73,0.76-1.25,1c-0.51,0.24-1.07,0.36-1.67,0.36c-0.77,0-1.45-0.16-2.04-0.49
	c-0.59-0.32-1.05-0.8-1.39-1.43c-0.34-0.63-0.5-1.38-0.5-2.26v-5.75h2.48v5.4c0,0.78,0.19,1.38,0.58,1.8
	c0.39,0.42,0.92,0.63,1.59,0.63c0.68,0,1.22-0.21,1.61-0.63c0.39-0.42,0.58-1.02,0.58-1.8v-5.4H55.01z M57.41,14
	c0.4-0.77,0.94-1.36,1.62-1.77c0.68-0.41,1.45-0.62,2.28-0.62c0.64,0,1.25,0.14,1.82,0.42c0.58,0.28,1.04,0.65,1.38,1.11V8.47h2.51
	v13.1h-2.51v-1.45c-0.31,0.48-0.74,0.87-1.29,1.17c-0.55,0.29-1.2,0.44-1.93,0.44c-0.83,0-1.58-0.21-2.27-0.64
	c-0.68-0.42-1.22-1.02-1.62-1.8c-0.4-0.77-0.59-1.66-0.59-2.66C56.82,15.64,57.02,14.76,57.41,14z M64.18,15.12
	c-0.24-0.43-0.55-0.76-0.96-0.99c-0.4-0.23-0.83-0.35-1.29-0.35c-0.46,0-0.89,0.11-1.27,0.34c-0.39,0.22-0.71,0.55-0.95,0.98
	c-0.24,0.43-0.36,0.94-0.36,1.53c0,0.59,0.12,1.11,0.36,1.55c0.24,0.44,0.56,0.78,0.96,1.02c0.4,0.24,0.82,0.35,1.27,0.35
	c0.46,0,0.89-0.12,1.29-0.35c0.4-0.23,0.72-0.56,0.96-0.99c0.24-0.43,0.35-0.95,0.35-1.55S64.42,15.55,64.18,15.12z M73.18,12.07
	c0.51-0.29,1.1-0.44,1.76-0.44v2.6h-0.66c-0.78,0-1.37,0.18-1.76,0.55c-0.4,0.37-0.59,1-0.59,1.91v4.89h-2.48v-9.81h2.48v1.52
	C72.25,12.77,72.67,12.36,73.18,12.07z M85.65,17.41h-7.17c0.06,0.71,0.31,1.26,0.74,1.66c0.44,0.4,0.97,0.6,1.61,0.6
	c0.92,0,1.58-0.4,1.96-1.19h2.67c-0.28,0.94-0.83,1.72-1.63,2.33c-0.8,0.61-1.79,0.91-2.96,0.91c-0.94,0-1.79-0.21-2.54-0.63
	c-0.75-0.42-1.33-1.01-1.75-1.78c-0.42-0.77-0.63-1.65-0.63-2.66c0-1.01,0.21-1.91,0.62-2.67c0.41-0.77,0.99-1.36,1.73-1.77
	c0.74-0.41,1.6-0.62,2.57-0.62c0.93,0,1.77,0.2,2.5,0.6c0.74,0.4,1.31,0.97,1.72,1.71c0.41,0.74,0.61,1.58,0.61,2.54
	C85.73,16.81,85.7,17.13,85.65,17.41z M83.16,15.75c-0.01-0.64-0.24-1.15-0.69-1.53c-0.45-0.38-1-0.58-1.65-0.58
	c-0.61,0-1.13,0.19-1.55,0.56c-0.42,0.37-0.68,0.89-0.77,1.55H83.16z M87.49,14c0.4-0.77,0.93-1.36,1.61-1.77
	c0.68-0.41,1.44-0.62,2.27-0.62c0.73,0,1.37,0.15,1.92,0.44c0.55,0.3,0.99,0.67,1.32,1.12v-1.4h2.5v9.81h-2.5v-1.43
	c-0.32,0.46-0.76,0.84-1.32,1.14c-0.56,0.3-1.21,0.45-1.94,0.45c-0.83,0-1.58-0.21-2.26-0.64c-0.68-0.42-1.22-1.02-1.61-1.8
	c-0.4-0.77-0.59-1.66-0.59-2.66C86.89,15.64,87.09,14.76,87.49,14z M94.26,15.12c-0.24-0.43-0.55-0.76-0.96-0.99
	c-0.4-0.23-0.83-0.35-1.29-0.35c-0.46,0-0.89,0.11-1.27,0.34c-0.39,0.22-0.71,0.55-0.95,0.98c-0.24,0.43-0.36,0.94-0.36,1.53
	c0,0.59,0.12,1.11,0.36,1.55c0.24,0.44,0.56,0.78,0.96,1.02c0.4,0.24,0.82,0.35,1.27,0.35c0.46,0,0.89-0.12,1.29-0.35
	c0.4-0.23,0.72-0.56,0.96-0.99c0.24-0.43,0.35-0.95,0.35-1.55S94.49,15.55,94.26,15.12z M108.79,11.76v9.81h-2.5v-1.24
	c-0.32,0.42-0.73,0.76-1.25,1c-0.51,0.24-1.07,0.36-1.67,0.36c-0.77,0-1.45-0.16-2.04-0.49c-0.59-0.32-1.05-0.8-1.39-1.43
	c-0.34-0.63-0.5-1.38-0.5-2.26v-5.75h2.48v5.4c0,0.78,0.19,1.38,0.58,1.8c0.39,0.42,0.92,0.63,1.59,0.63c0.68,0,1.22-0.21,1.61-0.63
	c0.39-0.42,0.58-1.02,0.58-1.8v-5.4H108.79z M115.89,19.61h4.07v1.97h-6.55V9.22h2.48V19.61z M121.5,14
	c0.4-0.77,0.93-1.36,1.61-1.77c0.68-0.41,1.44-0.62,2.27-0.62c0.73,0,1.37,0.15,1.92,0.44c0.55,0.3,0.99,0.67,1.32,1.12v-1.4h2.5
	v9.81h-2.5v-1.43c-0.32,0.46-0.76,0.84-1.32,1.14c-0.56,0.3-1.21,0.45-1.94,0.45c-0.83,0-1.58-0.21-2.26-0.64
	c-0.68-0.42-1.22-1.02-1.61-1.8c-0.4-0.77-0.59-1.66-0.59-2.66C120.9,15.64,121.1,14.76,121.5,14z M128.27,15.12
	c-0.24-0.43-0.55-0.76-0.96-0.99c-0.4-0.23-0.83-0.35-1.29-0.35c-0.46,0-0.89,0.11-1.27,0.34c-0.39,0.22-0.71,0.55-0.95,0.98
	c-0.24,0.43-0.36,0.94-0.36,1.53c0,0.59,0.12,1.11,0.36,1.55c0.24,0.44,0.56,0.78,0.96,1.02c0.4,0.24,0.82,0.35,1.27,0.35
	c0.46,0,0.89-0.11,1.29-0.35c0.4-0.23,0.72-0.56,0.96-0.99c0.24-0.43,0.35-0.95,0.35-1.55S128.5,15.55,128.27,15.12z M137.34,12.05
	c0.56-0.29,1.2-0.44,1.92-0.44c0.84,0,1.6,0.21,2.28,0.62c0.68,0.41,1.22,1,1.61,1.76c0.4,0.76,0.59,1.64,0.59,2.65
	c0,1-0.2,1.89-0.59,2.66c-0.4,0.77-0.93,1.37-1.61,1.8c-0.68,0.42-1.44,0.64-2.28,0.64c-0.73,0-1.37-0.14-1.92-0.43
	c-0.55-0.29-0.99-0.66-1.32-1.12v1.4h-2.48V8.47h2.48v4.73C136.34,12.73,136.78,12.34,137.34,12.05z M140.85,15.1
	c-0.24-0.43-0.56-0.76-0.96-0.98c-0.4-0.22-0.82-0.34-1.28-0.34c-0.45,0-0.87,0.12-1.27,0.35c-0.4,0.23-0.71,0.56-0.96,1
	c-0.24,0.44-0.36,0.95-0.36,1.54c0,0.59,0.12,1.1,0.36,1.54c0.24,0.44,0.56,0.77,0.96,1c0.4,0.23,0.82,0.35,1.27,0.35
	c0.46,0,0.89-0.12,1.28-0.35c0.4-0.24,0.71-0.57,0.96-1.01c0.24-0.44,0.36-0.96,0.36-1.56C141.21,16.04,141.09,15.53,140.85,15.1z
	 M147.14,21.3c-0.64-0.29-1.14-0.68-1.51-1.18c-0.37-0.5-0.58-1.04-0.61-1.65h2.5c0.05,0.38,0.23,0.69,0.56,0.94
	c0.32,0.25,0.73,0.37,1.21,0.37c0.47,0,0.84-0.09,1.11-0.28c0.27-0.19,0.4-0.43,0.4-0.73c0-0.32-0.16-0.56-0.49-0.72
	c-0.32-0.16-0.84-0.33-1.55-0.52c-0.73-0.18-1.33-0.36-1.8-0.55c-0.47-0.19-0.87-0.48-1.2-0.87c-0.34-0.39-0.5-0.91-0.5-1.58
	c0-0.54,0.16-1.04,0.47-1.49c0.31-0.45,0.76-0.8,1.35-1.06c0.58-0.26,1.27-0.39,2.06-0.39c1.17,0,2.1,0.29,2.8,0.88
	c0.7,0.58,1.08,1.37,1.15,2.36h-2.37c-0.04-0.39-0.2-0.7-0.49-0.93c-0.29-0.23-0.68-0.35-1.16-0.35c-0.45,0-0.79,0.08-1.04,0.25
	c-0.24,0.17-0.36,0.4-0.36,0.69c0,0.33,0.17,0.58,0.5,0.75c0.33,0.17,0.84,0.35,1.54,0.52c0.71,0.18,1.29,0.36,1.75,0.55
	c0.46,0.19,0.86,0.48,1.19,0.88c0.34,0.4,0.51,0.92,0.52,1.57c0,0.57-0.16,1.07-0.47,1.52c-0.31,0.45-0.76,0.8-1.35,1.05
	c-0.58,0.25-1.27,0.38-2.04,0.38C148.5,21.73,147.78,21.59,147.14,21.3z"/>
</svg>
