<?xml version="1.0" standalone="no"?>
<!DOCTYPE svg PUBLIC "-//W3C//DTD SVG 20010904//EN"
 "http://www.w3.org/TR/2001/REC-SVG-20010904/DTD/svg10.dtd">
<svg version="1.0" xmlns="http://www.w3.org/2000/svg"
 width="700.000000pt" height="700.000000pt" viewBox="0 0 700.000000 700.000000"
 preserveAspectRatio="xMidYMid meet">
<metadata>
Created by potrace 1.14, written by Peter Selinger 2001-2017
</metadata>
<g transform="translate(0.000000,700.000000) scale(0.100000,-0.100000)"
fill="#000000" stroke="none">
<path d="M1519 5432 c-12 -2 -14 -262 -14 -1909 l0 -1906 412 0 c226 1 416 3
420 6 5 3 8 75 8 160 l0 154 80 -82 c116 -119 226 -189 379 -240 102 -34 118
-36 291 -40 208 -5 353 25 518 106 336 166 551 495 623 949 13 87 12 418 -2
513 -81 558 -383 923 -859 1039 -118 29 -353 33 -466 8 -196 -43 -342 -122
-481 -262 l-58 -57 0 782 0 782 -418 0 c-230 0 -425 -1 -433 -3z m1506 -1987
c17 -3 63 -22 104 -41 176 -86 281 -274 282 -505 0 -53 -3 -110 -6 -125 -16
-74 -29 -120 -36 -129 -5 -5 -9 -15 -9 -22 0 -25 -71 -127 -121 -174 -89 -84
-206 -127 -343 -127 -102 0 -181 18 -256 60 -53 30 -170 133 -170 150 0 5 -11
25 -24 46 -44 67 -68 166 -72 292 -3 128 14 216 61 313 65 131 209 242 343
263 20 3 38 7 40 9 5 5 174 -3 207 -10z"/>
<path d="M4640 5432 c-7 -3 -10 -648 -10 -1908 l0 -1904 433 2 432 3 0 1904 0
1904 -423 1 c-232 1 -427 0 -432 -2z"/>
</g>
</svg>
